<svg width="26" height="26" viewBox="0 0 26 26" fill="none" xmlns="http://www.w3.org/2000/svg">
<path d="M13 0.75C10.5772 0.75 8.20877 1.46845 6.19427 2.8145C4.17977 4.16054 2.60965 6.07373 1.68248 8.31213C0.755308 10.5505 0.512717 13.0136 0.985386 15.3899C1.45805 17.7661 2.62475 19.9489 4.33795 21.6621C6.05114 23.3753 8.23388 24.542 10.6101 25.0146C12.9864 25.4873 15.4495 25.2447 17.6879 24.3175C19.9263 23.3904 21.8395 21.8202 23.1855 19.8057C24.5316 17.7912 25.25 15.4228 25.25 13C25.25 9.7511 23.9594 6.63526 21.6621 4.33794C19.3647 2.04062 16.2489 0.75 13 0.75V0.75ZM9.06251 8.625C9.49515 8.625 9.91808 8.75329 10.2778 8.99366C10.6375 9.23403 10.9179 9.57567 11.0835 9.97538C11.2491 10.3751 11.2924 10.8149 11.208 11.2393C11.1236 11.6636 10.9152 12.0534 10.6093 12.3593C10.3034 12.6652 9.9136 12.8736 9.48927 12.958C9.06493 13.0424 8.6251 12.9991 8.22539 12.8335C7.82567 12.6679 7.48403 12.3875 7.24367 12.0278C7.0033 11.6681 6.87501 11.2451 6.87501 10.8125C6.87267 10.5246 6.92766 10.2391 7.03677 9.97263C7.14588 9.70618 7.30692 9.4641 7.51051 9.26051C7.71411 9.05691 7.95618 8.89587 8.22264 8.78676C8.48909 8.67766 8.77459 8.62267 9.06251 8.625V8.625ZM13 20C11.7922 19.998 10.6054 19.6834 9.55515 19.087C8.50486 18.4905 7.62677 17.6325 7.00626 16.5963L8.50251 15.7213C8.96946 16.4967 9.62896 17.1382 10.417 17.5836C11.205 18.0289 12.0948 18.2629 13 18.2629C13.9052 18.2629 14.795 18.0289 15.583 17.5836C16.371 17.1382 17.0306 16.4967 17.4975 15.7213L18.9938 16.5963C18.3732 17.6325 17.4951 18.4905 16.4449 19.087C15.3946 19.6834 14.2078 19.998 13 20V20ZM16.9375 13C16.5049 13 16.0819 12.8717 15.7222 12.6313C15.3625 12.391 15.0821 12.0493 14.9165 11.6496C14.751 11.2499 14.7076 10.8101 14.792 10.3857C14.8764 9.96141 15.0848 9.57163 15.3907 9.2657C15.6966 8.95978 16.0864 8.75144 16.5107 8.66703C16.9351 8.58263 17.3749 8.62595 17.7746 8.79151C18.1743 8.95708 18.516 9.23746 18.7563 9.59719C18.9967 9.95692 19.125 10.3799 19.125 10.8125C19.1273 11.1004 19.0723 11.3859 18.9632 11.6524C18.8541 11.9188 18.6931 12.1609 18.4895 12.3645C18.2859 12.5681 18.0438 12.7291 17.7774 12.8382C17.5109 12.9473 17.2254 13.0023 16.9375 13Z" fill="#D7E264"/>
</svg>
