<svg width="28" height="28" viewBox="0 0 28 28" fill="none" xmlns="http://www.w3.org/2000/svg">
<path d="M14 1.75C11.5772 1.75 9.20877 2.46845 7.19427 3.8145C5.17977 5.16054 3.60965 7.07373 2.68248 9.31213C1.75531 11.5505 1.51272 14.0136 1.98539 16.3899C2.45805 18.7661 3.62475 20.9489 5.33795 22.6621C7.05114 24.3753 9.23388 25.542 11.6101 26.0146C13.9864 26.4873 16.4495 26.2447 18.6879 25.3175C20.9263 24.3904 22.8395 22.8202 24.1855 20.8057C25.5316 18.7912 26.25 16.4228 26.25 14C26.25 10.7511 24.9594 7.63526 22.6621 5.33794C20.3647 3.04062 17.2489 1.75 14 1.75V1.75ZM10.0625 9.625C10.4952 9.625 10.9181 9.75329 11.2778 9.99366C11.6375 10.234 11.9179 10.5757 12.0835 10.9754C12.2491 11.3751 12.2924 11.8149 12.208 12.2393C12.1236 12.6636 11.9152 13.0534 11.6093 13.3593C11.3034 13.6652 10.9136 13.8736 10.4893 13.958C10.0649 14.0424 9.6251 13.9991 9.22539 13.8335C8.82567 13.6679 8.48403 13.3875 8.24367 13.0278C8.0033 12.6681 7.87501 12.2451 7.87501 11.8125C7.87267 11.5246 7.92766 11.2391 8.03677 10.9726C8.14588 10.7062 8.30692 10.4641 8.51051 10.2605C8.71411 10.0569 8.95618 9.89587 9.22264 9.78676C9.48909 9.67766 9.77459 9.62267 10.0625 9.625V9.625ZM14 21C12.7625 21.0013 11.5462 20.679 10.4718 20.065C9.39734 19.4511 8.50214 18.5668 7.87501 17.5H20.125C19.4979 18.5668 18.6027 19.4511 17.5282 20.065C16.4538 20.679 15.2375 21.0013 14 21V21ZM17.9375 14C17.5049 14 17.0819 13.8717 16.7222 13.6313C16.3625 13.391 16.0821 13.0493 15.9165 12.6496C15.751 12.2499 15.7076 11.8101 15.792 11.3857C15.8764 10.9614 16.0848 10.5716 16.3907 10.2657C16.6966 9.95978 17.0864 9.75144 17.5107 9.66703C17.9351 9.58263 18.3749 9.62595 18.7746 9.79151C19.1743 9.95708 19.516 10.2375 19.7563 10.5972C19.9967 10.9569 20.125 11.3799 20.125 11.8125C20.1273 12.1004 20.0723 12.3859 19.9632 12.6524C19.8541 12.9188 19.6931 13.1609 19.4895 13.3645C19.2859 13.5681 19.0438 13.7291 18.7774 13.8382C18.5109 13.9473 18.2254 14.0023 17.9375 14Z" fill="#8CC44C"/>
</svg>
