<svg width="28" height="28" viewBox="0 0 28 28" fill="none" xmlns="http://www.w3.org/2000/svg">
<path d="M14.0001 1.55566C11.5388 1.55566 9.13283 2.28552 7.08635 3.65293C5.03987 5.02034 3.44484 6.9639 2.50295 9.23783C1.56106 11.5118 1.31461 14.0139 1.79479 16.4279C2.27496 18.8419 3.46018 21.0593 5.20056 22.7997C6.94095 24.54 9.15834 25.7253 11.5723 26.2054C13.9863 26.6856 16.4885 26.4392 18.7624 25.4973C21.0363 24.5554 22.9799 22.9604 24.3473 20.9139C25.7147 18.8674 26.4446 16.4614 26.4446 14.0001C26.4446 10.6996 25.1335 7.53434 22.7997 5.20056C20.4659 2.86677 17.3006 1.55566 14.0001 1.55566ZM21.0001 11.1068C21.0001 11.3837 20.918 11.6543 20.7642 11.8846C20.6103 12.1148 20.3917 12.2942 20.1359 12.4002C19.8801 12.5062 19.5986 12.5339 19.327 12.4799C19.0554 12.4259 18.806 12.2925 18.6102 12.0967C18.4144 11.9009 18.281 11.6515 18.227 11.3799C18.173 11.1083 18.2007 10.8268 18.3067 10.571C18.4126 10.3152 18.5921 10.0966 18.8223 9.94272C19.0525 9.78888 19.3232 9.70677 19.6001 9.70677C19.9714 9.70677 20.3275 9.85428 20.5901 10.1168C20.8526 10.3794 21.0001 10.7355 21.0001 11.1068ZM8.90567 12.5068C8.62878 12.5068 8.3581 12.4247 8.12787 12.2708C7.89764 12.117 7.7182 11.8983 7.61224 11.6425C7.50628 11.3867 7.47855 11.1052 7.53257 10.8336C7.58659 10.5621 7.71993 10.3126 7.91572 10.1168C8.11151 9.92103 8.36097 9.7877 8.63254 9.73368C8.90412 9.67966 9.18561 9.70738 9.44143 9.81334C9.69724 9.91931 9.91589 10.0987 10.0697 10.329C10.2236 10.5592 10.3057 10.8299 10.3057 11.1068C10.3057 11.2933 10.2685 11.4779 10.1962 11.6498C10.1239 11.8217 10.018 11.9775 9.88468 12.1079C9.75137 12.2383 9.59334 12.3408 9.41987 12.4093C9.24641 12.4778 9.06101 12.5109 8.87456 12.5068H8.90567ZM19.7946 18.3634C19.9183 18.5285 19.9715 18.7359 19.9423 18.9401C19.9131 19.1443 19.804 19.3286 19.639 19.4523C19.474 19.5761 19.2665 19.6292 19.0623 19.6001C18.8581 19.5709 18.6739 19.4618 18.5501 19.2968C18.0369 18.6099 17.3687 18.0539 16.5999 17.6742C15.8311 17.2944 14.9835 17.1016 14.1261 17.1115C13.2687 17.1213 12.4257 17.3336 11.6659 17.7309C10.906 18.1282 10.2508 18.6994 9.75345 19.3979C9.63381 19.566 9.45228 19.6797 9.2488 19.714C9.04533 19.7483 8.83657 19.7003 8.66845 19.5807C8.50033 19.461 8.38663 19.2795 8.35235 19.076C8.31807 18.8725 8.36603 18.6638 8.48567 18.4957C9.12492 17.5977 9.96721 16.8633 10.944 16.3524C11.9207 15.8415 13.0043 15.5685 14.1065 15.5556C15.2087 15.5427 16.2984 15.7903 17.2868 16.2783C18.2753 16.7662 19.1345 17.4806 19.7946 18.3634Z" fill="#E53942"/>
<path d="M7.39911 7.0202L11.9303 10.0639" stroke="#F5F5F5"/>
<path d="M21.6056 6.75339L16.9999 9.68322" stroke="#F5F5F5"/>
</svg>
