<svg width="26" height="26" viewBox="0 0 26 26" fill="none" xmlns="http://www.w3.org/2000/svg">
<path d="M13.0001 0.555664C10.5388 0.555664 8.13283 1.28552 6.08635 2.65293C4.03987 4.02034 2.44484 5.9639 1.50295 8.23783C0.561056 10.5118 0.314615 13.0139 0.794786 15.4279C1.27496 17.8419 2.46018 20.0593 4.20056 21.7997C5.94095 23.54 8.15834 24.7253 10.5723 25.2054C12.9863 25.6856 15.4885 25.4392 17.7624 24.4973C20.0363 23.5554 21.9799 21.9604 23.3473 19.9139C24.7147 17.8674 25.4446 15.4614 25.4446 13.0001C25.4446 9.69964 24.1335 6.53434 21.7997 4.20056C19.4659 1.86677 16.3006 0.555664 13.0001 0.555664ZM18.4834 16.9357C18.4834 17.1419 18.4015 17.3398 18.2556 17.4856C18.1098 17.6315 17.9119 17.7134 17.7057 17.7134H8.37234C8.16606 17.7134 7.96823 17.6315 7.82237 17.4856C7.6765 17.3398 7.59456 17.1419 7.59456 16.9357C7.59456 16.7294 7.6765 16.5316 7.82237 16.3857C7.96823 16.2398 8.16606 16.1579 8.37234 16.1579H17.7057C17.9119 16.1579 18.1098 16.2398 18.2556 16.3857C18.4015 16.5316 18.4834 16.7294 18.4834 16.9357ZM20.0001 10.1068C20.0001 10.3837 19.918 10.6543 19.7642 10.8846C19.6103 11.1148 19.3917 11.2942 19.1359 11.4002C18.8801 11.5062 18.5986 11.5339 18.327 11.4799C18.0554 11.4259 17.806 11.2925 17.6102 11.0967C17.4144 10.9009 17.281 10.6515 17.227 10.3799C17.173 10.1083 17.2007 9.82683 17.3067 9.57102C17.4126 9.3152 17.5921 9.09655 17.8223 8.94272C18.0525 8.78888 18.3232 8.70677 18.6001 8.70677C18.9714 8.70677 19.3275 8.85428 19.5901 9.11683C19.8526 9.37938 20.0001 9.73547 20.0001 10.1068ZM7.71123 11.5068C7.43433 11.5068 7.16366 11.4247 6.93343 11.2708C6.7032 11.117 6.52376 10.8983 6.41779 10.6425C6.31183 10.3867 6.28411 10.1052 6.33813 9.83365C6.39215 9.56208 6.52548 9.31262 6.72128 9.11683C6.91707 8.92103 7.16653 8.7877 7.4381 8.73368C7.70967 8.67966 7.99117 8.70738 8.24698 8.81334C8.5028 8.91931 8.72145 9.09875 8.87528 9.32898C9.02912 9.55921 9.11123 9.82988 9.11123 10.1068C9.11127 10.2933 9.07405 10.4779 9.00176 10.6498C8.92947 10.8217 8.82355 10.9775 8.69024 11.1079C8.55692 11.2383 8.39889 11.3408 8.22543 11.4093C8.05197 11.4778 7.86657 11.5109 7.68011 11.5068H7.71123Z" fill="#F38933"/>
</svg>
