<svg width="26" height="26" viewBox="0 0 26 26" fill="none" xmlns="http://www.w3.org/2000/svg">
<path d="M13 0.75C10.5772 0.75 8.20877 1.46845 6.19427 2.8145C4.17977 4.16054 2.60965 6.07373 1.68248 8.31213C0.755308 10.5505 0.512717 13.0136 0.985386 15.3899C1.45805 17.7661 2.62475 19.9489 4.33795 21.6621C6.05114 23.3753 8.23388 24.542 10.6101 25.0146C12.9864 25.4873 15.4495 25.2447 17.6879 24.3175C19.9263 23.3904 21.8395 21.8202 23.1855 19.8057C24.5316 17.7912 25.25 15.4228 25.25 13C25.25 9.7511 23.9594 6.63526 21.6621 4.33794C19.3647 2.04062 16.2489 0.75 13 0.75ZM9.06251 8.625C9.49515 8.625 9.91808 8.75329 10.2778 8.99366C10.6375 9.23403 10.9179 9.57567 11.0835 9.97538C11.2491 10.3751 11.2924 10.8149 11.208 11.2393C11.1236 11.6636 10.9152 12.0534 10.6093 12.3593C10.3034 12.6652 9.9136 12.8736 9.48927 12.958C9.06493 13.0424 8.6251 12.9991 8.22539 12.8335C7.82567 12.6679 7.48403 12.3875 7.24367 12.0278C7.0033 11.6681 6.87501 11.2451 6.87501 10.8125C6.87257 10.5216 6.92866 10.2332 7.03994 9.96436C7.15121 9.69556 7.3154 9.45188 7.52273 9.24781C7.73007 9.04374 7.97633 8.88344 8.24686 8.77645C8.51739 8.66946 8.80667 8.61795 9.09751 8.625H9.06251ZM17.4975 19.93C17.0306 19.1546 16.371 18.513 15.583 18.0677C14.795 17.6224 13.9052 17.3883 13 17.3883C12.0948 17.3883 11.205 17.6224 10.417 18.0677C9.62896 18.513 8.96946 19.1546 8.50251 19.93L7.00626 19.055C7.6292 18.0224 8.50834 17.1683 9.55846 16.5754C10.6086 15.9825 11.7941 15.6709 13 15.6709C14.2059 15.6709 15.3914 15.9825 16.4416 16.5754C17.4917 17.1683 18.3708 18.0224 18.9938 19.055L17.4975 19.93ZM16.9375 13C16.3573 13 15.8009 12.7695 15.3907 12.3593C14.9805 11.9491 14.75 11.3927 14.75 10.8125C14.75 10.2323 14.9805 9.67594 15.3907 9.2657C15.8009 8.85547 16.3573 8.625 16.9375 8.625C17.5177 8.625 18.0741 8.85547 18.4843 9.2657C18.8945 9.67594 19.125 10.2323 19.125 10.8125C19.125 11.3927 18.8945 11.9491 18.4843 12.3593C18.0741 12.7695 17.5177 13 16.9375 13Z" fill="#FECD3A"/>
</svg>
